<svg width="185" height="185" viewBox="0 0 185 185" fill="none" xmlns="http://www.w3.org/2000/svg">
<path d="M172.243 11.9639C177.117 16.8381 180.314 22.6619 181.833 29.4351C183.352 36.2084 184.112 44.121 184.112 53.1731V130.844C184.112 139.896 183.352 147.809 181.833 154.582C180.314 161.355 177.117 167.179 172.243 172.053C167.305 176.99 161.418 180.219 154.582 181.738C147.809 183.257 139.896 184.017 130.844 184.017H53.1731C44.1843 184.017 36.2717 183.257 29.4351 181.738C22.6619 180.219 16.8065 176.99 11.869 172.053C6.93149 167.179 3.70313 161.355 2.1839 154.582C0.727965 147.809 0 139.896 0 130.844V52.9832C0 43.9944 0.759615 36.1451 2.27885 29.4351C3.79808 22.6619 6.99479 16.8381 11.869 11.9639C16.8065 7.02644 22.6619 3.79808 29.4351 2.27885C36.2717 0.759615 44.1527 0 53.0782 0H130.844C139.896 0 147.809 0.759615 154.582 2.27885C161.418 3.79808 167.305 7.02644 172.243 11.9639ZM163.033 50.5144C163.033 45.5136 162.589 41.0509 161.703 37.1262C160.88 33.1382 159.234 29.8782 156.766 27.3462C154.297 24.9407 151.037 23.2949 146.986 22.4087C142.934 21.5224 138.44 21.0793 133.502 21.0793H50.7993C45.7985 21.0793 41.2408 21.5224 37.1262 22.4087C33.0116 23.2316 29.7516 24.8774 27.3462 27.3462C24.8774 29.8149 23.1999 33.0749 22.3137 37.1262C21.4908 41.1142 21.0793 45.6403 21.0793 50.7044V133.408C21.0793 138.472 21.4908 142.998 22.3137 146.986C23.1999 150.91 24.8774 154.139 27.3462 156.671C29.8149 159.076 33.0749 160.722 37.1262 161.608C41.1775 162.494 45.6719 162.938 50.6094 162.938H133.502C138.44 162.938 142.934 162.494 146.986 161.608C151.037 160.722 154.297 159.076 156.766 156.671C159.234 154.139 160.88 150.91 161.703 146.986C162.589 142.998 163.033 138.472 163.033 133.408V50.5144ZM44.2476 144.517C42.5385 144.517 41.0509 143.916 39.7849 142.713C38.5189 141.447 37.8858 139.928 37.8858 138.155C37.8858 136.383 38.5189 134.895 39.7849 133.692C41.0509 132.426 42.5385 131.793 44.2476 131.793H139.864C141.637 131.793 143.124 132.426 144.327 133.692C145.593 134.895 146.226 136.383 146.226 138.155C146.226 139.928 145.593 141.447 144.327 142.713C143.124 143.916 141.637 144.517 139.864 144.517H44.2476ZM51.464 79.1899C47.4127 79.1899 44.121 77.9556 41.589 75.4868C39.0569 72.9548 37.7909 69.6631 37.7909 65.6118V50.4195C37.7909 46.3682 39.0569 43.1082 41.589 40.6394C44.121 38.1074 47.4127 36.8414 51.464 36.8414H72.7332C76.7212 36.8414 79.9496 38.1074 82.4183 40.6394C84.9504 43.1082 86.2164 46.3682 86.2164 50.4195V65.6118C86.2164 69.6631 84.9504 72.9548 82.4183 75.4868C79.9496 77.9556 76.7212 79.1899 72.7332 79.1899H51.464Z" fill="black"/>
</svg>
