<svg width="277" height="93" viewBox="0 0 277 93" fill="none" xmlns="http://www.w3.org/2000/svg">
<path d="M265.578 74.8302C262.633 74.8302 260.117 73.7859 258.028 71.6973C255.94 69.6087 254.895 67.0921 254.895 64.1475C254.895 61.2029 255.94 58.6864 258.028 56.5977C260.117 54.5091 262.633 53.4648 265.578 53.4648C268.523 53.4648 271.039 54.5091 273.128 56.5977C275.216 58.6864 276.261 61.2029 276.261 64.1475C276.261 67.0921 275.216 69.6087 273.128 71.6973C271.039 73.7859 268.523 74.8302 265.578 74.8302Z" fill="black"/>
<path d="M222.59 74.1112L238.358 0H258.696L242.929 74.1112H222.59Z" fill="black"/>
<path d="M188.385 58.9089C190.063 58.9089 191.638 58.4638 193.11 57.5736C194.583 56.6833 195.867 55.4336 196.962 53.8243C198.092 52.2151 198.965 50.3662 199.582 48.2776C200.232 46.1547 200.557 43.8949 200.557 41.4982C200.557 38.6563 199.838 36.3622 198.4 34.616C196.962 32.8698 195.045 31.9967 192.648 31.9967C191.039 31.9967 189.498 32.459 188.026 33.3834C186.553 34.3079 185.252 35.5919 184.122 37.2354C182.993 38.8446 182.102 40.6935 181.452 42.7821C180.801 44.8707 180.476 47.0792 180.476 49.4075C180.476 52.2836 181.195 54.5947 182.633 56.3409C184.071 58.0529 185.988 58.9089 188.385 58.9089ZM171.077 92.241H150.739L166.66 17.4107H186.485L184.79 25.32H185.201C187.427 22.3412 190.029 20.1499 193.008 18.7461C196.021 17.308 199.29 16.589 202.817 16.589C206.686 16.589 210.025 17.4621 212.832 19.2083C215.64 20.9203 217.797 23.3855 219.303 26.604C220.844 29.7883 221.615 33.606 221.615 38.0571C221.615 43.3642 220.913 48.2604 219.509 52.7458C218.105 57.2312 216.136 61.1345 213.603 64.4557C211.103 67.7769 208.141 70.362 204.717 72.2109C201.293 74.0256 197.544 74.9329 193.47 74.9329C190.799 74.9329 188.402 74.5221 186.28 73.7003C184.157 72.8443 182.342 71.5946 180.835 69.9511C179.363 68.3076 178.25 66.3217 177.497 63.9935H177.138L171.077 92.241Z" fill="black"/>
<path d="M57.7277 74.1112L69.7971 17.4107H89.4676L87.5159 26.3986H87.9268C89.7415 23.1458 92.2067 20.595 95.3225 18.7461C98.4383 16.8972 101.76 15.9727 105.286 15.9727C108.744 15.9727 111.74 16.8629 114.274 18.6434C116.808 20.4238 118.554 22.889 119.513 26.0391H119.924C121.362 23.9505 123.039 22.17 124.957 20.6977C126.874 19.1912 128.997 18.027 131.325 17.2053C133.688 16.3836 136.222 15.9727 138.926 15.9727C141.974 15.9727 144.679 16.6575 147.041 18.0271C149.404 19.3966 151.253 21.2798 152.588 23.6766C153.958 26.0733 154.642 28.8296 154.642 31.9454C154.642 33.0068 154.574 34.1196 154.437 35.2837C154.334 36.4479 154.146 37.6462 153.872 38.8788L146.476 74.1112H126.241L133.02 41.7036C133.157 41.0531 133.243 40.4539 133.277 39.906C133.345 39.3582 133.38 38.8104 133.38 38.2625C133.38 36.2767 132.832 34.7016 131.736 33.5375C130.64 32.3734 129.168 31.7913 127.319 31.7913C125.95 31.7913 124.683 32.1337 123.519 32.8185C122.389 33.5033 121.413 34.4962 120.591 35.7973C119.804 37.0642 119.222 38.6049 118.845 40.4196L111.809 74.1112H92.4978L99.2772 41.7036C99.4141 41.0531 99.4997 40.4539 99.534 39.906C99.6025 39.3582 99.6367 38.8104 99.6367 38.2625C99.6367 36.2767 99.0889 34.7016 97.9932 33.5375C96.8975 32.3734 95.4253 31.7913 93.5763 31.7913C92.2067 31.7913 90.9399 32.1337 89.7757 32.8185C88.6458 33.5033 87.6871 34.4962 86.8996 35.7973C86.1121 37.0642 85.5129 38.6221 85.1021 40.471L77.9632 74.1112H57.7277Z" fill="black"/>
<path d="M6.83076 35.0783C6.83076 31.2092 7.89218 27.8538 10.015 25.0119C12.1721 22.1358 15.1852 19.9102 19.0542 18.3352C22.9233 16.7602 27.4942 15.9727 32.7671 15.9727C37.6633 15.9727 41.9946 16.7773 45.761 18.3866C49.5615 19.9958 52.5575 22.2385 54.7488 25.1146C56.9401 27.9907 58.1043 31.3119 58.2412 35.0783H40.0601C39.9916 33.9484 39.6321 32.9554 38.9816 32.0994C38.331 31.2092 37.4408 30.5244 36.3109 30.0451C35.2152 29.5657 33.9313 29.3261 32.459 29.3261C31.1579 29.3261 30.028 29.4973 29.0693 29.8396C28.1106 30.1478 27.3744 30.61 26.8608 31.2263C26.3472 31.8084 26.0904 32.5103 26.0904 33.3321C26.0904 34.3592 26.5527 35.2152 27.4771 35.9C28.4358 36.5506 30.2676 37.3381 32.9725 38.2625L39.3411 40.4196C44.7851 42.2685 48.6371 44.3914 50.8969 46.7882C53.1909 49.1507 54.3379 52.2322 54.3379 56.0328C54.3379 59.9703 53.2252 63.4114 50.9996 66.356C48.8083 69.2663 45.7096 71.5261 41.7036 73.1354C37.6976 74.7446 32.9726 75.5493 27.5285 75.5493C22.0502 75.5493 17.2738 74.7446 13.1993 73.1354C9.1248 71.5261 5.94054 69.2321 3.6465 66.2533C1.3867 63.2744 0.171197 59.7649 0 55.7246H19.2083C19.311 57.6078 20.1499 59.1486 21.7249 60.347C23.3342 61.5453 25.4399 62.1445 28.0421 62.1445C29.3774 62.1445 30.4902 62.0076 31.3804 61.7337C32.3049 61.4255 33.0068 60.9975 33.4861 60.4497C33.9655 59.8676 34.2052 59.1828 34.2052 58.3953C34.2052 57.4024 33.7258 56.5635 32.7671 55.8787C31.8084 55.1939 30.0622 54.4235 27.5285 53.5676L22.3926 51.8213C17.1197 50.0067 13.1993 47.7469 10.6313 45.0419C8.09762 42.3028 6.83076 38.9816 6.83076 35.0783Z" fill="black"/>
</svg>
