<svg width="24" height="16" viewBox="0 0 24 16" fill="none" xmlns="http://www.w3.org/2000/svg">
<path d="M10.5662 0L11.0571 1.76124C8.42196 2.18295 6.30355 3.84496 6.30355 6.12713C6.30355 8.13643 8.18945 9.52558 10.902 9.57519C10.902 12.8992 8.96448 16 5.39935 16C2.24758 16 0 13.4202 0 9.82326C0 4.44031 5.19268 0.570543 10.5662 0ZM23.535 0L24 1.76124C21.3907 2.18295 19.2465 3.84496 19.2465 6.12713C19.2465 8.13643 21.1324 9.52558 23.8708 9.57519C23.8708 12.8992 21.9333 16 18.3681 16C15.2164 16 12.9429 13.4202 12.9429 9.82326C12.9429 4.44031 18.1615 0.570543 23.535 0Z" fill="black"/>
</svg>
